<svg xmlns="http://www.w3.org/2000/svg" width="24" height="24" viewBox="0 0 24 24"><title>Asset 3</title><g id="Layer_2" data-name="Layer 2"><g id="visualization"><rect x="1" y="1" width="22" height="22" rx="5" ry="5" style="fill:#00bbda"/><rect x="1" y="1" width="22" height="22" rx="5" ry="5" style="fill:none;stroke:#00bbda;stroke-width:2px"/><path d="M12,15.05a1.17,1.17,0,0,1-1.17-1.17V4.66a1.17,1.17,0,0,1,2.34,0v9.22A1.17,1.17,0,0,1,12,15.05Z" style="fill:#fff"/><path d="M16,12l-3.27,2.74A1.17,1.17,0,1,1,11.25,13l3.27-2.75A1.17,1.17,0,0,1,16,12Z" style="fill:#fff"/><path d="M8,12l3.27,2.74A1.17,1.17,0,1,0,12.75,13L9.48,10.24A1.17,1.17,0,0,0,8,12Z" style="fill:#fff"/><line x1="7.15" y1="18.1" x2="16.85" y2="18.1" style="fill:#fafafa;stroke:#fafafa;stroke-width:2.3000000000000003px"/></g></g></svg>