<svg id="Component_39_1" data-name="Component 39 – 1" xmlns="http://www.w3.org/2000/svg" width="6.317" height="6.315" viewBox="0 0 6.317 6.315">
  <path id="Path_771" data-name="Path 771" d="M.5,4.5A.5.5,0,0,1,.146,3.65L3.578.146a.5.5,0,1,1,.706.705L.851,4.355A.5.5,0,0,1,.5,4.5" transform="translate(3.183 0) rotate(45)" fill="#fafafa"/>
  <path id="Path_770" data-name="Path 770" d="M3.931,4.5a.5.5,0,0,0,.353-.851L.852.146A.5.5,0,0,0,.146.851l3.432,3.5a.5.5,0,0,0,.353.146" transform="translate(3.185 0) rotate(45)" fill="#fafafa"/>
</svg>
