<svg xmlns="http://www.w3.org/2000/svg" width="19.41" height="19.41" viewBox="0 0 19.41 19.41">
    <title>Asset 10</title>
    <g id="Layer_2" data-name="Layer 2">
        <g id="background">
            <circle cx="9.71" cy="9.71" r="9.71" style="fill:none;" />
            <path d="M16.54,9.71a1.38,1.38,0,0,1-1.38,1.38H4.26a1.39,1.39,0,1,1,0-2.77h10.9A1.38,1.38,0,0,1,16.54,9.71Z" style="fill:#fff" />
            <path d="M13,5l3.25,3.87a1.39,1.39,0,0,1-2.13,1.78L10.85,6.73A1.38,1.38,0,0,1,13,5Z" style="fill:#fff" />
            <path d="M13,14.46l3.25-3.86a1.39,1.39,0,0,0-2.13-1.78l-3.24,3.86A1.38,1.38,0,1,0,13,14.46Z" style="fill:#fff" />
        </g>
    </g>
</svg>