<svg xmlns="http://www.w3.org/2000/svg" xmlns:xlink="http://www.w3.org/1999/xlink" width="22.552" height="22.552" viewBox="0 0 22.552 22.552">
  <defs>
    <filter id="Path_631">
      <feOffset input="SourceAlpha"/>
      <feGaussianBlur stdDeviation="1.5" result="blur"/>
      <feFlood flood-color="#fdfdfa" flood-opacity="0.502" result="color"/>
      <feComposite operator="out" in="SourceGraphic" in2="blur"/>
      <feComposite operator="in" in="color"/>
      <feComposite operator="in" in2="SourceGraphic"/>
    </filter>
  </defs>
  <g id="Enter_button" data-name="Enter button" transform="translate(0.25 0.25)">
    <g id="Group_1440" data-name="Group 1440" transform="translate(-134.009 -74.651)">
      <g data-type="innerShadowGroup">
        <path id="Path_631-2" data-name="Path 631" d="M1068.781,11.948A11.026,11.026,0,1,0,1079.807.922a11.058,11.058,0,0,0-11.026,11.026" transform="translate(-934.772 73.729)" fill="#f09e6a"/>
        <g transform="matrix(1, 0, 0, 1, 133.76, 74.4)" filter="url(#Path_631)">
          <path id="Path_631-3" data-name="Path 631" d="M1068.781,11.948A11.026,11.026,0,1,0,1079.807.922a11.058,11.058,0,0,0-11.026,11.026" transform="translate(-1068.53 -0.67)" fill="#fff"/>
        </g>
        <path id="Path_631-4" data-name="Path 631" d="M1068.781,11.948A11.026,11.026,0,1,0,1079.807.922a11.058,11.058,0,0,0-11.026,11.026" transform="translate(-934.772 73.729)" fill="none" stroke="#fdfdfa" stroke-width="0.5"/>
      </g>
      <path id="Path_607" data-name="Path 607" d="M21.833,176.638a1.384,1.384,0,0,1-1.384,1.384H9.55a1.384,1.384,0,0,1,0-2.768h10.9a1.384,1.384,0,0,1,1.384,1.384" transform="translate(130.035 -90.962)" fill="#fdfdfa"/>
      <path id="Path_608" data-name="Path 608" d="M18.269,171.886l3.241,3.862a1.384,1.384,0,0,1-2.121,1.78l-3.24-3.863a1.384,1.384,0,1,1,2.12-1.779" transform="translate(130.035 -90.962)" fill="#fdfdfa"/>
      <path id="Path_609" data-name="Path 609" d="M18.269,181.391l3.241-3.862a1.384,1.384,0,0,0-2.121-1.78l-3.24,3.863a1.384,1.384,0,1,0,2.12,1.779" transform="translate(130.035 -90.962)" fill="#fdfdfa"/>
    </g>
  </g>
</svg>
