<svg xmlns="http://www.w3.org/2000/svg" width="24" height="24" viewBox="0 0 24 24">
    <title>Asset 11</title>
    <g id="Layer_2" data-name="Layer 2">
        <g id="content">
            <path d="M6.22,12a1.17,1.17,0,0,1,1.17-1.17h9.22a1.17,1.17,0,1,1,0,2.34H7.39A1.17,1.17,0,0,1,6.22,12Z" style="fill:#fff" />
            <path d="M9.23,16,6.49,12.75a1.17,1.17,0,1,1,1.8-1.5L11,14.52A1.17,1.17,0,1,1,9.23,16Z" style="fill:#fff" />
            <path d="M9.23,8,6.49,11.25a1.17,1.17,0,1,0,1.8,1.5L11,9.48A1.17,1.17,0,1,0,9.23,8Z" style="fill:#fff" />
        </g>
    </g>
</svg>