<svg xmlns="http://www.w3.org/2000/svg" xmlns:xlink="http://www.w3.org/1999/xlink" width="101.169" height="29.74" viewBox="0 0 101.169 29.74">
  <defs>
    <filter id="Union_1">
      <feOffset input="SourceAlpha"/>
      <feGaussianBlur stdDeviation="3" result="blur"/>
      <feFlood flood-color="#fdfdfa" flood-opacity="0.4" result="color"/>
      <feComposite operator="out" in="SourceGraphic" in2="blur"/>
      <feComposite operator="in" in="color"/>
      <feComposite operator="in" in2="SourceGraphic"/>
    </filter>
  </defs>
  <g id="Browse" transform="translate(0.375 0.375)">
    <g data-type="innerShadowGroup">
      <path id="Union_1-2" data-name="Union 1" d="M85.731,28.985H14.688q-.178,0-.357,0t-.357,0h-.156v0a14.5,14.5,0,0,1,0-28.971V0H86.088a14.5,14.5,0,0,1,0,28.99Q85.909,28.99,85.731,28.985Z" fill="#fdfdfa"/>
      <g transform="matrix(1, 0, 0, 1, -0.38, -0.38)" filter="url(#Union_1)">
        <path id="Union_1-3" data-name="Union 1" d="M85.731,28.985H14.688q-.178,0-.357,0t-.357,0h-.156v0a14.5,14.5,0,0,1,0-28.971V0H86.088a14.5,14.5,0,0,1,0,28.99Q85.909,28.99,85.731,28.985Z" transform="translate(0.38 0.38)" fill="#fff"/>
      </g>
      <path id="Union_1-4" data-name="Union 1" d="M85.731,28.985H14.688q-.178,0-.357,0t-.357,0h-.156v0a14.5,14.5,0,0,1,0-28.971V0H86.088a14.5,14.5,0,0,1,0,28.99Q85.909,28.99,85.731,28.985Z" fill="none" stroke="#f09e6a" stroke-width="0.75"/>
    </g>
    <text id="Browse-2" data-name="Browse" transform="translate(14.696 22.052)" fill="#f09e6a" font-size="20" font-family="OpenSans-Semibold, Open Sans" font-weight="600"><tspan x="0" y="0">Browse</tspan></text>
  </g>
</svg>
