<svg id="Component_40_1" data-name="Component 40 – 1" xmlns="http://www.w3.org/2000/svg" width="48.507" height="37.287" viewBox="0 0 48.507 37.287">
  <circle id="Ellipse_6" data-name="Ellipse 6" cx="12" cy="12" r="12" transform="translate(27.722 4.134) rotate(30)" fill="gray"/>
  <circle id="Ellipse_2" data-name="Ellipse 2" cx="2" cy="2" r="2" transform="translate(16.928 22.419) rotate(30)" fill="#ccc"/>
  <circle id="Ellipse_12" data-name="Ellipse 12" cx="2" cy="2" r="2" transform="translate(25.125 31.115) rotate(30)" fill="#ccc"/>
  <circle id="Ellipse_9" data-name="Ellipse 9" cx="3" cy="3" r="3" transform="translate(28.222 1.036) rotate(30)" fill="#b2b2b2"/>
  <circle id="Ellipse_11" data-name="Ellipse 11" cx="3" cy="3" r="3" transform="translate(11.526 24.919) rotate(30)" fill="#b2b2b2"/>
  <circle id="Ellipse_14" data-name="Ellipse 14" cx="1" cy="1" r="1" transform="translate(20.026 12.294) rotate(30)" fill="#b2b2b2"/>
  <circle id="Ellipse_15" data-name="Ellipse 15" cx="1" cy="1" r="1" transform="translate(29.588 32.749) rotate(30)" fill="#b2b2b2"/>
  <circle id="Ellipse_13" data-name="Ellipse 13" cx="2" cy="2" r="2" transform="translate(34.419 3.098) rotate(30)" fill="#ccc"/>
  <circle id="Ellipse_7" data-name="Ellipse 7" cx="5" cy="5" r="5" transform="translate(18.562) rotate(30)" fill="#888e8d"/>
  <circle id="Ellipse_8" data-name="Ellipse 8" cx="3.786" cy="3.786" r="3.786" transform="translate(18.265 26.943) rotate(30)" fill="#888e8d"/>
  <circle id="Ellipse_5" data-name="Ellipse 5" cx="8" cy="8" r="8" transform="translate(8 6.026) rotate(30)" fill="#999"/>
</svg>
