<svg id="Component_36_1" data-name="Component 36 – 1" xmlns="http://www.w3.org/2000/svg" width="7.785" height="7.911" viewBox="0 0 7.785 7.911">
  <path id="Path_597" data-name="Path 597" d="M1143.277,165.708a.876.876,0,0,1-.62-1.5l6.031-6.158a.876.876,0,0,1,1.24,1.239l-6.031,6.158a.876.876,0,0,1-.62.257" transform="translate(-1142.4 -157.797)" fill="#fafafa"/>
  <path id="Path_670" data-name="Path 670" d="M1149.308,165.708a.876.876,0,0,0,.62-1.5l-6.031-6.158a.876.876,0,1,0-1.24,1.239l6.031,6.158a.876.876,0,0,0,.62.257" transform="translate(-1142.4 -157.797)" fill="#fafafa"/>
</svg>
