<svg id="Component_36_1" data-name="Component 36 – 1" xmlns="http://www.w3.org/2000/svg" width="10.026" height="12.24" viewBox="0 0 10.026 12.24">
  <path id="Path_592" data-name="Path 592" d="M1128.436,163.414h-7.273a.877.877,0,0,1,0-1.753h8.273a.877.877,0,1,1,0,1.753" transform="translate(-1120.287 -156.418)" fill="#fafafa"/>
  <path id="Path_665" data-name="Path 665" d="M.812,0A.813.813,0,0,0,0,.812L-.02,3.686a.812.812,0,0,0,1.624,0L1.624.812A.813.813,0,0,0,.812,0" transform="translate(5.045 12.225) rotate(-135)" fill="#fff"/>
  <path id="Path_667" data-name="Path 667" d="M.832,4.5A.813.813,0,0,1,.02,3.686L0,.811a.812.812,0,0,1,1.624,0l.02,2.874A.813.813,0,0,1,.832,4.5" transform="translate(1.784 9.06) rotate(-45)" fill="#fff"/>
  <path id="Path_668" data-name="Path 668" d="M.832,4.5A.813.813,0,0,1,.02,3.685L0,.811a.812.812,0,0,1,1.624,0l.02,2.874A.813.813,0,0,1,.832,4.5" transform="translate(8.24 3.18) rotate(135)" fill="#fff"/>
  <path id="Path_669" data-name="Path 669" d="M.832,0A.813.813,0,0,0,.02.812L0,3.686a.812.812,0,0,0,1.624,0L1.644.812A.813.813,0,0,0,.832,0" transform="translate(4.964 0) rotate(45)" fill="#fff"/>
</svg>
