<svg xmlns="http://www.w3.org/2000/svg" xmlns:xlink="http://www.w3.org/1999/xlink" width="74.02" height="20.751" viewBox="0 0 74.02 20.751">
  <defs>
    <filter id="Union_1">
      <feOffset input="SourceAlpha"/>
      <feGaussianBlur stdDeviation="3" result="blur"/>
      <feFlood flood-color="#fdfdfa" flood-opacity="0.302" result="color"/>
      <feComposite operator="out" in="SourceGraphic" in2="blur"/>
      <feComposite operator="in" in="color"/>
      <feComposite operator="in" in2="SourceGraphic"/>
    </filter>
  </defs>
  <g id="samll_guide" data-name="samll guide" transform="translate(0.375 0.375)">
    <g data-type="innerShadowGroup">
      <path id="Union_1-2" data-name="Union 1" d="M2463.12,1784.067h0a10.029,10.029,0,0,1-10-10,9.918,9.918,0,0,1,5.458-8.9,10.236,10.236,0,0,1,4.542-1.1h53.269a10,10,0,1,1,0,20H2463.12Z" transform="translate(-2453.12 -1764.067)" fill="#001226"/>
      <g transform="matrix(1, 0, 0, 1, -0.38, -0.38)" filter="url(#Union_1)">
        <path id="Union_1-3" data-name="Union 1" d="M2463.12,1784.067h0a10.029,10.029,0,0,1-10-10,9.918,9.918,0,0,1,5.458-8.9,10.236,10.236,0,0,1,4.542-1.1h53.269a10,10,0,1,1,0,20H2463.12Z" transform="translate(-2452.75 -1763.69)" fill="#fff"/>
      </g>
      <path id="Union_1-4" data-name="Union 1" d="M2463.12,1784.067h0a10.029,10.029,0,0,1-10-10,9.918,9.918,0,0,1,5.458-8.9,10.236,10.236,0,0,1,4.542-1.1h53.269a10,10,0,1,1,0,20H2463.12Z" transform="translate(-2453.12 -1764.067)" fill="none" stroke="#f09e6a" stroke-width="0.75"/>
    </g>
    <text id="Need_Help_" data-name="Need Help?" transform="translate(5.681 14.5)" fill="#f09e6a" font-size="11" font-family="OpenSans-Bold, Open Sans" font-weight="700"><tspan x="0" y="0">Need Help?</tspan></text>
  </g>
</svg>
