<svg xmlns="http://www.w3.org/2000/svg" xmlns:xlink="http://www.w3.org/1999/xlink" width="152.501" height="29.74" viewBox="0 0 152.501 29.74">
  <defs>
    <filter id="Union_1">
      <feOffset input="SourceAlpha"/>
      <feGaussianBlur stdDeviation="3" result="blur"/>
      <feFlood flood-color="#fdfdfa" flood-opacity="0.4" result="color"/>
      <feComposite operator="out" in="SourceGraphic" in2="blur"/>
      <feComposite operator="in" in="color"/>
      <feComposite operator="in" in2="SourceGraphic"/>
    </filter>
  </defs>
  <g id="guide" transform="translate(0.375 0.375)">
    <g data-type="innerShadowGroup">
      <path id="Union_1-2" data-name="Union 1" d="M2567.364,1788.485H2444.99q-.178,0-.357,0t-.357,0h-.156v0a14.5,14.5,0,0,1,0-28.971v-.009h123.6a14.5,14.5,0,0,1,0,28.99Q2567.542,1788.49,2567.364,1788.485Z" transform="translate(-2430.302 -1759.5)" fill="#f09e6a"/>
      <g transform="matrix(1, 0, 0, 1, -0.37, -0.38)" filter="url(#Union_1)">
        <path id="Union_1-3" data-name="Union 1" d="M2567.364,1788.485H2444.99q-.178,0-.357,0t-.357,0h-.156v0a14.5,14.5,0,0,1,0-28.971v-.009h123.6a14.5,14.5,0,0,1,0,28.99Q2567.542,1788.49,2567.364,1788.485Z" transform="translate(-2429.93 -1759.13)" fill="#fff"/>
      </g>
      <path id="Union_1-4" data-name="Union 1" d="M2567.364,1788.485H2444.99q-.178,0-.357,0t-.357,0h-.156v0a14.5,14.5,0,0,1,0-28.971v-.009h123.6a14.5,14.5,0,0,1,0,28.99Q2567.542,1788.49,2567.364,1788.485Z" transform="translate(-2430.302 -1759.5)" fill="none" stroke="#fdfdfa" stroke-width="0.75"/>
    </g>
    <text id="Close_Help" data-name="Close Help" transform="translate(32.175 22.052)" fill="#fdfdfa" font-size="20" font-family="OpenSans-Semibold, Open Sans" font-weight="600"><tspan x="0" y="0">Close Help</tspan></text>
    <g id="Group_1474" data-name="Group 1474" transform="translate(5 3)">
      <path id="Path_607" data-name="Path 607" d="M21.833,176.638a1.384,1.384,0,0,1-1.384,1.384H9.55a1.384,1.384,0,0,1,0-2.768h10.9a1.384,1.384,0,0,1,1.384,1.384" transform="translate(128.321 -123.483) rotate(45)" fill="#fdfdfa"/>
      <path id="Path_657" data-name="Path 657" d="M13.667,1.384A1.384,1.384,0,0,0,12.283,0H1.384a1.384,1.384,0,0,0,0,2.768h10.9a1.384,1.384,0,0,0,1.384-1.384" transform="translate(19.836 8.172) rotate(135)" fill="#fdfdfa"/>
    </g>
  </g>
</svg>
