<svg id="Component_38_1" data-name="Component 38 – 1" xmlns="http://www.w3.org/2000/svg" width="8.047" height="5.161" viewBox="0 0 8.047 5.161">
  <path id="Path_574" data-name="Path 574" d="M.812,0A.813.813,0,0,0,0,.812L-.025,4.838a.812.812,0,0,0,1.624,0L1.624.812A.813.813,0,0,0,.812,0" transform="translate(4.034 5.143) rotate(-135)" fill="#f09e6a"/>
  <path id="Path_659" data-name="Path 659" d="M.837,5.649a.813.813,0,0,1-.812-.812L0,.811a.812.812,0,0,1,1.624,0l.025,4.026a.813.813,0,0,1-.812.812" transform="translate(0 1.166) rotate(-45)" fill="#f09e6a"/>
</svg>
