<svg id="Component_41_1" data-name="Component 41 – 1" xmlns="http://www.w3.org/2000/svg" width="42.793" height="29.604" viewBox="0 0 42.793 29.604">
  <path id="Path_697" data-name="Path 697" d="M6386.021-746.411c-9.736,0-14.6-.3-19.748-.616-5.4-.332-10.994-.676-22.927-.676v-5.5c12.1,0,17.776.349,23.264.687,5.063.311,9.844.605,19.411.605Z" transform="translate(-6343.346 762.09)" fill="#999"/>
  <path id="Path_698" data-name="Path 698" d="M6387.929-763.335c-5.307,0-8.982-.037-11.979-.093-2.672-.05-4.719-.116-6.823-.184-4.865-.156-9.9-.318-23.872-.318v-9c14.213,0,19.365.166,24.349.326,2.042.066,4.03.13,6.624.178,2.928.055,6.519.09,11.7.09Z" transform="translate(-6345.254 772.933)" fill="gray"/>
  <path id="Path_699" data-name="Path 699" d="M6388.333-755.386c-9.662,0-14.593-.42-19.812-.864-5.466-.465-11.118-.947-22.862-.947v-3.3c11.885,0,17.608.487,23.142.959,5.148.438,10.01.853,19.532.853Z" transform="translate(-6345.658 774.938)" fill="#888e8d"/>
  <path id="Path_700" data-name="Path 700" d="M6388.289-749.4a128.719,128.719,0,0,1-21.5-1.46,126.888,126.888,0,0,0-21.194-1.438v-2.2a128.761,128.761,0,0,1,21.507,1.46,126.821,126.821,0,0,0,21.185,1.437Z" transform="translate(-6345.597 772.288)" fill="#b2b2b2"/>
  <path id="Path_701" data-name="Path 701" d="M6387.486-742.418c-11.733,0-17.154-1.27-22.4-2.5a73.931,73.931,0,0,0-19.849-2.292v-1.649a75.333,75.333,0,0,1,20.225,2.336c5.232,1.226,10.634,2.494,22.562,2.454l0,1.649Z" transform="translate(-6345.239 768.936)" fill="#ccc"/>
  <path id="Path_702" data-name="Path 702" d="M6387.485-740.536c-11.743,0-17.167-1.71-22.417-3.365a64.087,64.087,0,0,0-8-2.128c-1.652-.309-3.345-.535-5.173-.692-2.056-.177-4.232-.263-6.655-.263v-1.374c2.462,0,4.678.088,6.772.268,1.875.161,3.611.394,5.308.711a66.136,66.136,0,0,1,8.163,2.168,66.166,66.166,0,0,0,8.775,2.293c1.876.336,3.822.58,5.947.747,2.4.188,4.955.274,7.821.261l.006,1.374Z" transform="translate(-6345.239 770.14)" fill="#f2f2f2"/>
</svg>
