<svg id="Component_46_1" data-name="Component 46 – 1" xmlns="http://www.w3.org/2000/svg" width="7.785" height="7.911" viewBox="0 0 7.785 7.911">
  <path id="Path_684" data-name="Path 684" d="M1143.277,165.708a.876.876,0,0,1-.62-1.5l6.031-6.158a.876.876,0,0,1,1.24,1.239l-6.031,6.158a.876.876,0,0,1-.62.257" transform="translate(-1142.4 -157.797)" fill="#fff"/>
  <path id="Path_685" data-name="Path 685" d="M1149.308,165.708a.876.876,0,0,0,.62-1.5l-6.031-6.158a.876.876,0,1,0-1.24,1.239l6.031,6.158a.876.876,0,0,0,.62.257" transform="translate(-1142.4 -157.797)" fill="#fff"/>
</svg>
